<?xml version="1.0" encoding="us-ascii" standalone="no"?><svg xmlns="http://www.w3.org/2000/svg" xmlns:xlink="http://www.w3.org/1999/xlink" contentStyleType="text/css" height="699px" preserveAspectRatio="none" style="width:1057px;height:699px;background:#FFFFFF;" version="1.1" viewBox="0 0 1057 699" width="1057px" zoomAndPan="magnify"><defs><filter height="300%" id="f20tzzow59pgi" width="300%" x="-1" y="-1"><feGaussianBlur result="blurOut" stdDeviation="2.0"/><feColorMatrix in="blurOut" result="blurOut2" type="matrix" values="0 0 0 0 0 0 0 0 0 0 0 0 0 0 0 0 0 0 .4 0"/><feOffset dx="4.0" dy="4.0" in="blurOut2" result="blurOut3"/><feBlend in="SourceGraphic" in2="blurOut3" mode="normal"/></filter></defs><g><!--cluster Build & Compilation--><g id="cluster_Build &amp; Compilation"><path d="M8.5,316.14 L150.9375,316.14 A3.75,3.75 0 0 1 153.4375,318.64 L160.4375,341.2079 L335.5,341.2079 A2.5,2.5 0 0 1 338,343.7079 L338,406.71 A2.5,2.5 0 0 1 335.5,409.21 L8.5,409.21 A2.5,2.5 0 0 1 6,406.71 L6,318.64 A2.5,2.5 0 0 1 8.5,316.14 " fill="#F5DEB3" filter="url(#f20tzzow59pgi)" style="stroke:#000000;stroke-width:1.5;"/><line style="stroke:#000000;stroke-width:1.5;" x1="6" x2="160.4375" y1="341.2079" y2="341.2079"/><text fill="#000000" font-family="sans-serif" font-size="14" font-weight="bold" lengthAdjust="spacing" textLength="141.4375" x="10" y="333.1059">Build &amp; Compilation</text></g><!--cluster Client Tier--><g id="cluster_Client Tier"><path d="M379.5,152.57 L453.875,152.57 A3.75,3.75 0 0 1 456.375,155.07 L463.375,177.6379 L606.5,177.6379 A2.5,2.5 0 0 1 609,180.1379 L609,243.14 A2.5,2.5 0 0 1 606.5,245.64 L379.5,245.64 A2.5,2.5 0 0 1 377,243.14 L377,155.07 A2.5,2.5 0 0 1 379.5,152.57 " fill="#98FB98" filter="url(#f20tzzow59pgi)" style="stroke:#000000;stroke-width:1.5;"/><line style="stroke:#000000;stroke-width:1.5;" x1="377" x2="463.375" y1="177.6379" y2="177.6379"/><text fill="#000000" font-family="sans-serif" font-size="14" font-weight="bold" lengthAdjust="spacing" textLength="73.375" x="381" y="169.5359">Client Tier</text></g><!--cluster Application Tier--><g id="cluster_Application Tier"><path d="M364.5,316.14 L478.0625,316.14 A3.75,3.75 0 0 1 480.5625,318.64 L487.5625,341.2079 L696.5,341.2079 A2.5,2.5 0 0 1 699,343.7079 L699,678.38 A2.5,2.5 0 0 1 696.5,680.88 L364.5,680.88 A2.5,2.5 0 0 1 362,678.38 L362,318.64 A2.5,2.5 0 0 1 364.5,316.14 " fill="#F08080" filter="url(#f20tzzow59pgi)" style="stroke:#000000;stroke-width:1.5;"/><line style="stroke:#000000;stroke-width:1.5;" x1="362" x2="487.5625" y1="341.2079" y2="341.2079"/><text fill="#000000" font-family="sans-serif" font-size="14" font-weight="bold" lengthAdjust="spacing" textLength="112.5625" x="366" y="333.1059">Application Tier</text></g><!--cluster Business & Data Tier--><g id="cluster_Business &amp; Data Tier"><path d="M725.5,578.27 L872.9375,578.27 A3.75,3.75 0 0 1 875.4375,580.77 L882.4375,603.3379 L1045.5,603.3379 A2.5,2.5 0 0 1 1048,605.8379 L1048,687.91 A2.5,2.5 0 0 1 1045.5,690.41 L725.5,690.41 A2.5,2.5 0 0 1 723,687.91 L723,580.77 A2.5,2.5 0 0 1 725.5,578.27 " fill="#B0C4DE" filter="url(#f20tzzow59pgi)" style="stroke:#000000;stroke-width:1.5;"/><line style="stroke:#000000;stroke-width:1.5;" x1="723" x2="882.4375" y1="603.3379" y2="603.3379"/><text fill="#000000" font-family="sans-serif" font-size="14" font-weight="bold" lengthAdjust="spacing" textLength="146.4375" x="727" y="595.2359">Business &amp; Data Tier</text></g><!--entity WAR--><g id="elem_WAR"><rect fill="#FFFFFF" filter="url(#f20tzzow59pgi)" height="39.0679" rx="2.5" ry="2.5" style="stroke:#181818;stroke-width:0.5;" width="299" x="22.5" y="354.14"/><text fill="#000000" font-family="sans-serif" font-size="14" lengthAdjust="spacing" textLength="279" x="32.5" y="379.1059">Maven gradle + Jakarta Servlet WAR build</text></g><!--entity CCT--><g id="elem_CCT"><rect fill="#FFFFFF" filter="url(#f20tzzow59pgi)" height="39.0679" rx="2.5" ry="2.5" style="stroke:#181818;stroke-width:0.5;" width="200" x="393" y="190.57"/><text fill="#000000" font-family="sans-serif" font-size="14" lengthAdjust="spacing" textLength="180" x="403" y="215.5359">Static resources and forms</text></g><!--entity CT--><g id="elem_CT"><rect fill="#FFFFFF" filter="url(#f20tzzow59pgi)" height="39.0679" rx="2.5" ry="2.5" style="stroke:#181818;stroke-width:0.5;" width="144" x="421" y="474.21"/><text fill="#000000" font-family="sans-serif" font-size="14" lengthAdjust="spacing" textLength="124" x="431" y="499.1759">Servlet Controllers</text></g><!--entity TT--><g id="elem_TT"><rect fill="#FFFFFF" filter="url(#f20tzzow59pgi)" height="39.0679" rx="2.5" ry="2.5" style="stroke:#181818;stroke-width:0.5;" width="164" x="378" y="625.81"/><text fill="#000000" font-family="sans-serif" font-size="14" lengthAdjust="spacing" textLength="144" x="388" y="650.7759">Thymeleaf Templates</text></g><!--entity B--><g id="elem_B"><rect fill="#FFFFFF" filter="url(#f20tzzow59pgi)" height="39.0679" rx="2.5" ry="2.5" style="stroke:#181818;stroke-width:0.5;" width="61" x="622.5" y="354.14"/><text fill="#000000" font-family="sans-serif" font-size="14" lengthAdjust="spacing" textLength="41" x="632.5" y="379.1059">Beans</text></g><!--entity STATIC--><g id="elem_STATIC"><rect fill="#FFFFFF" filter="url(#f20tzzow59pgi)" height="39.0679" rx="2.5" ry="2.5" style="stroke:#181818;stroke-width:0.5;" width="130" x="428" y="354.14"/><text fill="#000000" font-family="sans-serif" font-size="14" lengthAdjust="spacing" textLength="110" x="438" y="379.1059">Static Resources</text></g><!--entity SS--><g id="elem_SS"><rect fill="#FFFFFF" filter="url(#f20tzzow59pgi)" height="39.0679" rx="2.5" ry="2.5" style="stroke:#181818;stroke-width:0.5;" width="106" x="577" y="625.81"/><text fill="#000000" font-family="sans-serif" font-size="14" lengthAdjust="spacing" textLength="86" x="587" y="650.7759">local storage</text></g><!--entity DAO--><g id="elem_DAO"><rect fill="#FFFFFF" filter="url(#f20tzzow59pgi)" height="58.1358" rx="2.5" ry="2.5" style="stroke:#181818;stroke-width:0.5;" width="100" x="739" y="616.27"/><text fill="#000000" font-family="sans-serif" font-size="14" lengthAdjust="spacing" textLength="80" x="749" y="641.2359">Data Access</text><text fill="#000000" font-family="sans-serif" font-size="14" lengthAdjust="spacing" textLength="51" x="763.5" y="660.3039">Objects</text></g><!--entity DB--><g id="elem_DB"><path d="M948.5,631.31 C948.5,621.31 990,621.31 990,621.31 C990,621.31 1031.5,621.31 1031.5,631.31 L1031.5,659.3779 C1031.5,669.3779 990,669.3779 990,669.3779 C990,669.3779 948.5,669.3779 948.5,659.3779 L948.5,631.31 " fill="#FFFFFF" filter="url(#f20tzzow59pgi)" style="stroke:#181818;stroke-width:0.5;"/><path d="M948.5,631.31 C948.5,641.31 990,641.31 990,641.31 C990,641.31 1031.5,641.31 1031.5,631.31 " fill="none" style="stroke:#181818;stroke-width:0.5;"/><text fill="#000000" font-family="sans-serif" font-size="14" lengthAdjust="spacing" textLength="63" x="958.5" y="660.2759">Database</text></g><!--entity Dev--><g id="elem_Dev"><ellipse cx="172" cy="177.57" fill="#DA70D6" filter="url(#f20tzzow59pgi)" rx="8" ry="8" style="stroke:#181818;stroke-width:0.5;"/><path d="M172,185.57 L172,212.57 M159,193.57 L185,193.57 M172,212.57 L159,227.57 M172,212.57 L185,227.57 " fill="none" filter="url(#f20tzzow59pgi)" style="stroke:#181818;stroke-width:0.5;"/><text fill="#000000" font-family="sans-serif" font-size="14" lengthAdjust="spacing" textLength="68" x="138" y="247.0359">Developer</text></g><!--entity C--><g id="elem_C"><ellipse cx="493" cy="14" fill="#ADD8E6" filter="url(#f20tzzow59pgi)" rx="8" ry="8" style="stroke:#181818;stroke-width:0.5;"/><path d="M493,22 L493,49 M480,30 L506,30 M493,49 L480,64 M493,49 L506,64 " fill="none" filter="url(#f20tzzow59pgi)" style="stroke:#181818;stroke-width:0.5;"/><text fill="#000000" font-family="sans-serif" font-size="14" lengthAdjust="spacing" textLength="39" x="473.5" y="83.4659">Client</text></g><!--link Dev to WAR--><g id="link_Dev_WAR"><path d="M172,251.46 C172,284.17 172,322.8 172,347.77 " fill="none" id="Dev-to-WAR" style="stroke:#181818;stroke-width:1.0;"/><polygon fill="#181818" points="172,353.77,176,344.77,172,348.77,168,344.77,172,353.77" style="stroke:#181818;stroke-width:1.0;"/><text fill="#000000" font-family="sans-serif" font-size="13" lengthAdjust="spacing" textLength="30" x="173" y="296.037">Build</text></g><!--link C to CCT--><g id="link_C_CCT"><path d="M493,87.89 C493,120.6 493,159.24 493,184.2 " fill="none" id="C-to-CCT" style="stroke:#181818;stroke-width:1.0;"/><polygon fill="#181818" points="493,190.2,497,181.2,493,185.2,489,181.2,493,190.2" style="stroke:#181818;stroke-width:1.0;"/><text fill="#000000" font-family="sans-serif" font-size="13" lengthAdjust="spacing" textLength="29" x="494" y="132.467">Uses</text></g><!--link WAR to CT--><g id="link_WAR_CT"><path d="M223.57,393.64 C283.39,415.64 375.7888,449.6289 435.6588,471.6489 " fill="none" id="WAR-to-CT" style="stroke:#181818;stroke-width:1.0;"/><polygon fill="#181818" points="441.29,473.72,434.224,466.8592,436.5973,471.9941,431.4624,474.3674,441.29,473.72" style="stroke:#181818;stroke-width:1.0;"/><text fill="#000000" font-family="sans-serif" font-size="13" lengthAdjust="spacing" textLength="47" x="352.72" y="440.107">deploys</text></g><!--link CT to SS--><g id="link_CT_SS"><path d="M510.35,513.69 C536.7,542.46 582.4681,592.4348 608.7381,621.1248 " fill="none" id="CT-to-SS" style="stroke:#181818;stroke-width:1.0;"/><polygon fill="#181818" points="612.79,625.55,609.6623,616.211,609.4134,621.8624,603.762,621.6135,612.79,625.55" style="stroke:#181818;stroke-width:1.0;"/><text fill="#000000" font-family="sans-serif" font-size="13" lengthAdjust="spacing" textLength="87" x="554.3" y="558.167">save images in</text></g><!--reverse link CCT to STATIC--><g id="link_CCT_STATIC"><path d="M493,235.95 C493,267 493,322.56 493,353.69 " fill="none" id="CCT-backto-STATIC" style="stroke:#181818;stroke-width:1.0;"/><polygon fill="#181818" points="493,229.95,489,238.95,493,234.95,497,238.95,493,229.95" style="stroke:#181818;stroke-width:1.0;"/><text fill="#000000" font-family="sans-serif" font-size="13" lengthAdjust="spacing" textLength="58" x="494" y="296.037">Response</text></g><!--link CT to TT--><g id="link_CT_TT"><path d="M486.61,513.49 C483.72,522.44 480.41,533.33 478,543.27 C471.11,571.68 466.5415,599.2351 463.5115,619.6351 " fill="none" id="CT-to-TT" style="stroke:#181818;stroke-width:1.0;"/><polygon fill="#181818" points="462.63,625.57,467.9089,617.2553,463.3646,620.6243,459.9957,616.08,462.63,625.57" style="stroke:#181818;stroke-width:1.0;"/><text fill="#000000" font-family="sans-serif" font-size="13" lengthAdjust="spacing" textLength="46" x="479" y="558.167">process</text></g><!--reverse link STATIC to CT--><g id="link_STATIC_CT"><path d="M493,399.64 C493,421.67 493,451.8 493,473.82 " fill="none" id="STATIC-backto-CT" style="stroke:#181818;stroke-width:1.0;"/><polygon fill="#181818" points="493,393.64,489,402.64,493,398.64,497,402.64,493,393.64" style="stroke:#181818;stroke-width:1.0;"/><text fill="#000000" font-family="sans-serif" font-size="13" lengthAdjust="spacing" textLength="32" x="494" y="440.107">serve</text></g><!--link CT to DAO--><g id="link_CT_DAO"><path d="M565.25,511.84 C606.75,523.87 658.49,542.79 699,570.27 C719.43,584.13 736.2865,597.6912 753.0865,612.1812 " fill="none" id="CT-to-DAO" style="stroke:#181818;stroke-width:1.0;"/><polygon fill="#181818" points="757.63,616.1,753.4273,607.1929,753.8438,612.8344,748.2023,613.2509,757.63,616.1" style="stroke:#181818;stroke-width:1.0;"/><text fill="#000000" font-family="sans-serif" font-size="13" lengthAdjust="spacing" textLength="49" x="685.03" y="558.167">Request</text></g><!--link DAO to DB--><g id="link_DAO_DB"><path d="M845.46,645.34 C878.95,645.34 910.4,645.34 942,645.34 " fill="none" id="DAO-DB" style="stroke:#181818;stroke-width:1.0;"/><polygon fill="#181818" points="839.46,645.34,848.46,649.34,844.46,645.34,848.46,641.34,839.46,645.34" style="stroke:#181818;stroke-width:1.0;"/><polygon fill="#181818" points="948,645.34,939,641.34,943,645.34,939,649.34,948,645.34" style="stroke:#181818;stroke-width:1.0;"/><text fill="#000000" font-family="sans-serif" font-size="13" lengthAdjust="spacing" textLength="73" x="857.25" y="638.237">SQL Queries</text></g><!--reverse link B to DAO--><g id="link_B_DAO"><path d="M666.5773,398.923 C683.8373,429.943 715.82,488.24 743,543.27 C754.95,567.47 767.59,595.43 776.59,615.8 " fill="none" id="B-backto-DAO" style="stroke:#181818;stroke-width:1.0;"/><polygon fill="#181818" points="663.66,393.68,664.5406,403.4894,666.0911,398.0492,671.5313,399.5997,663.66,393.68" style="stroke:#181818;stroke-width:1.0;"/><text fill="#000000" font-family="sans-serif" font-size="13" lengthAdjust="spacing" textLength="55" x="728.33" y="499.137">response</text></g><!--SRC=[TLF1ZjCm4BtxAqQjn0Nb1weLKffUGA3LReAuS9awqzJKiRssqwL2_3ipILeYblPGrPxtvhrvdgQJSG4Zzf2EsFfNuph8SI2LRWNj- -0TkLpdYoM8f3EwpYuXBHrmiBcXdxcqfdCzeq7p5qMbK6SVOKTdiZvG14noWBMF-cZQkLnP8nokLR3c5iUyj-n2gO3wX1t1QZiOsy8xgDYEiPYDTojOlnu9C_nIm9-RKLXzmJCvw2AsxFWzVC8JnenGKpnRol2jV8Qzz5k9efouaScaVYibtehYWznkO19Tk9XzDeOYgmUqr4LYgJSEwimMDQUL_10r9K3Nmi77FesQLTLSDKLKLQEct6xWQwAabgEN8LYZnv6locD4saUq_v6Ufwoyoz5RIt7Ml4d-GsYEbvuiuG4QwWDdInEXkKVO4he9ihs3cCT_leu_WkkcR3vMTnZMQnucyJBmp1Ey_liiyaO5xwUJb2IabeBrbwJuSBrd_0OIlpoOddiaC8vJd4MB8Tm2PbUicZZw1RkHIeYUpKvTHyBCvhuSAYstCHd7I5x87V9cBPybPI8hw_lsQKPigKNZktlS_-3_qXJDhdnSvj8oRe-99eRycb3RnQ8kl0jRndePA6KbfuSYYXMfRRbKFts6fu6YuSsISc7f84MfnLiQVm00]--></g></svg>