<?xml version="1.0" encoding="UTF-8" standalone="no"?>
<!-- Created with Inkscape (http://www.inkscape.org/) -->

<svg
   width="128.21165mm"
   height="128.21169mm"
   viewBox="0 0 128.21165 128.21169"
   version="1.1"
   id="svg1"
   xml:space="preserve"
   xmlns:xlink="http://www.w3.org/1999/xlink"
   xmlns="http://www.w3.org/2000/svg"
   xmlns:svg="http://www.w3.org/2000/svg"><defs
     id="defs1"><linearGradient
       id="linearGradient1"><stop
         style="stop-color:#417545;stop-opacity:1;"
         offset="0"
         id="stop1" /><stop
         style="stop-color:#90cf55;stop-opacity:1;"
         offset="1"
         id="stop2" /></linearGradient><linearGradient
       xlink:href="#linearGradient1"
       id="linearGradient2"
       x1="28.670792"
       y1="132.14928"
       x2="138.74026"
       y2="13.511522"
       gradientUnits="userSpaceOnUse" /></defs><g
     id="layer1"
     transform="translate(-13.661863,-17.452966)"><rect
       style="fill:url(#linearGradient2);fill-opacity:1;stroke:#000000;stroke-width:0.211667;stroke-opacity:0"
       id="rect1"
       width="128"
       height="128"
       x="13.767695"
       y="17.5588"
       ry="11.16287" /><style
       id="style1">.st0{display:none}.st1{display:inline}.st2{fill:#020202}</style><g
       id="_x34__1_"
       transform="matrix(0.7682065,0,0,0.7682065,31.559615,32.906576)"
       style="fill:#ececec"><path
         class="st2"
         d="m 35.251088,80.482221 h 78.000002 v -37.5 l -87.400002,-18.3 -3.1,-12.9 -12.6,-4.2000004 c 0,-0.2 0.1,-0.3 0.1,-0.5 0,-4.3 -3.4999997,-7.80000001 -7.7999997,-7.80000001 -4.3,0 -7.8,3.50000001 -7.8,7.80000001 0,4.3000004 3.5,7.8000004 7.8,7.8000004 1.8,0 3.4,-0.6 4.7,-1.6 l 9.3999997,4.7 12.4,59.3 -12.5,9.4 v 15.599999 l 5.7,7.1 c -1.6,1.9 -2.5,4.3 -2.5,7 0,6 4.9,10.9 10.9,10.9 6,0 10.9,-4.9 10.9,-10.9 0,-6 -4.9,-10.9 -10.9,-10.9 -0.9,0 -1.8,0.1 -2.6,0.3 l -2.1,-3.4 h 65.6 l 3.6,6 c -2.2,2 -3.6,4.9 -3.6,8.1 0,6 4.9,10.9 10.900002,10.9 6,0 10.9,-4.9 10.9,-10.9 0,-6 -4.9,-10.9 -10.9,-10.9 h -0.3 l -1.3,-3.1 h 12.5 V 96.282221 H 22.751088 v -6.2 z m 0,-6.3 -4.6,-21.4 0.6,3 18.5,1.5 3.8,17 h -18.3 z m 21.8,0 -3.7,-16.7 18.1,1.4 1.4,15.3 z m 18.8,0 -1.4,-15 17,1.3 v 13.7 z m 31.200002,-15.6 v 15.6 H 94.551088 v -13.4 l 12.500002,1 v -3.2 l -12.500002,-1 v -13.9 l 12.500002,2.4 z m -81.200002,-28.1 65.6,12.6 v 14.2 l -17.3,-1.4 -1.5,-16.4 -3.1,-0.6 1.6,16.8 -18.5,-1.5 -4.3,-19.3 -3.7,-0.7 4.4,19.7 -18.5,-1.5 z m 76.500002,81.199999 c 2.6,0 4.7,2.1 4.7,4.7 0,2.6 -2.1,4.7 -4.7,4.7 -2.600002,0 -4.700002,-2.1 -4.700002,-4.7 0,-2.6 2.1,-4.7 4.700002,-4.7 z m -71.800002,0 c 2.6,0 4.7,2.1 4.7,4.7 0,2.6 -2.1,4.7 -4.7,4.7 -2.6,0 -4.7,-2.1 -4.7,-4.7 0,-2.6 2.1,-4.7 4.7,-4.7 z"
         id="icon_11_"
         style="fill:#ececec" /></g></g></svg>
