<?xml version="1.0" encoding="UTF-8" standalone="no"?>
<svg
   contentStyleType="text/css"
   height="699"
   preserveAspectRatio="none"
   version="1.1"
   viewBox="0 0 1057 699"
   width="1057"
   zoomAndPan="magnify"
   id="svg26"
   xmlns="http://www.w3.org/2000/svg"
   xmlns:svg="http://www.w3.org/2000/svg">
  <defs
     id="defs1">
    <filter
       height="1.88125"
       id="f20tzzow59pgi"
       width="1.88125"
       x="-0.315625"
       y="-0.315625">
      <feGaussianBlur
         result="blurOut"
         stdDeviation="2.0"
         id="feGaussianBlur1" />
      <feColorMatrix
         in="blurOut"
         result="blurOut2"
         type="matrix"
         values="0 0 0 0 0 0 0 0 0 0 0 0 0 0 0 0 0 0 .4 0"
         id="feColorMatrix1" />
      <feOffset
         dx="4.0"
         dy="4.0"
         in="blurOut2"
         result="blurOut3"
         id="feOffset1" />
      <feBlend
         in="SourceGraphic"
         in2="blurOut3"
         mode="normal"
         id="feBlend1" />
    </filter>
  </defs>
  <g
     id="g26">
    <!--cluster Build & Compilation-->
    <g
       id="cluster_Build &amp; Compilation">
      <path
         d="m 8.5,316.14 h 142.4375 a 3.75,3.75 0 0 1 2.5,2.5 l 7,22.5679 H 335.5 a 2.5,2.5 0 0 1 2.5,2.5 V 406.71 a 2.5,2.5 0 0 1 -2.5,2.5 H 8.5 A 2.5,2.5 0 0 1 6,406.71 v -88.07 a 2.5,2.5 0 0 1 2.5,-2.5"
         fill="#f5deb3"
         filter="url(#f20tzzow59pgi)"
         style="stroke:#000000;stroke-width:1.5"
         id="path1" />
      <line
         style="stroke:#000000;stroke-width:1.5"
         x1="6"
         x2="160.4375"
         y1="341.20789"
         y2="341.20789"
         id="line1" />
      <text
         fill="#000000"
         font-family="sans-serif"
         font-size="14px"
         font-weight="bold"
         lengthAdjust="spacing"
         textLength="141.4375"
         x="10"
         y="333.1059"
         id="text1">Build &amp; Compilation</text>
    </g>
    <!--cluster Client Tier-->
    <g
       id="cluster_Client Tier">
      <path
         d="m 379.5,152.57 h 74.375 a 3.75,3.75 0 0 1 2.5,2.5 l 7,22.5679 H 606.5 a 2.5,2.5 0 0 1 2.5,2.5 V 243.14 a 2.5,2.5 0 0 1 -2.5,2.5 h -227 a 2.5,2.5 0 0 1 -2.5,-2.5 v -88.07 a 2.5,2.5 0 0 1 2.5,-2.5"
         fill="#98fb98"
         filter="url(#f20tzzow59pgi)"
         style="stroke:#000000;stroke-width:1.5"
         id="path2" />
      <line
         style="stroke:#000000;stroke-width:1.5"
         x1="377"
         x2="463.375"
         y1="177.63789"
         y2="177.63789"
         id="line2" />
      <text
         fill="#000000"
         font-family="sans-serif"
         font-size="14px"
         font-weight="bold"
         lengthAdjust="spacing"
         textLength="73.375"
         x="381"
         y="169.5359"
         id="text2">Client Tier</text>
    </g>
    <!--cluster Application Tier-->
    <g
       id="cluster_Application Tier">
      <path
         d="m 364.5,316.14 h 113.5625 a 3.75,3.75 0 0 1 2.5,2.5 l 7,22.5679 H 696.5 a 2.5,2.5 0 0 1 2.5,2.5 V 678.38 a 2.5,2.5 0 0 1 -2.5,2.5 h -332 a 2.5,2.5 0 0 1 -2.5,-2.5 V 318.64 a 2.5,2.5 0 0 1 2.5,-2.5"
         fill="#f08080"
         filter="url(#f20tzzow59pgi)"
         style="stroke:#000000;stroke-width:1.5"
         id="path3" />
      <line
         style="stroke:#000000;stroke-width:1.5"
         x1="362"
         x2="487.5625"
         y1="341.20789"
         y2="341.20789"
         id="line3" />
      <text
         fill="#000000"
         font-family="sans-serif"
         font-size="14px"
         font-weight="bold"
         lengthAdjust="spacing"
         textLength="112.5625"
         x="366"
         y="333.1059"
         id="text3">Application Tier</text>
    </g>
    <!--cluster Business & Data Tier-->
    <g
       id="cluster_Business &amp; Data Tier">
      <path
         d="m 725.5,578.27 h 147.4375 a 3.75,3.75 0 0 1 2.5,2.5 l 7,22.5679 H 1045.5 a 2.5,2.5 0 0 1 2.5,2.5 V 687.91 a 2.5,2.5 0 0 1 -2.5,2.5 h -320 a 2.5,2.5 0 0 1 -2.5,-2.5 V 580.77 a 2.5,2.5 0 0 1 2.5,-2.5"
         fill="#b0c4de"
         filter="url(#f20tzzow59pgi)"
         style="stroke:#000000;stroke-width:1.5"
         id="path4" />
      <line
         style="stroke:#000000;stroke-width:1.5"
         x1="723"
         x2="882.4375"
         y1="603.33789"
         y2="603.33789"
         id="line4" />
      <text
         fill="#000000"
         font-family="sans-serif"
         font-size="14px"
         font-weight="bold"
         lengthAdjust="spacing"
         textLength="146.4375"
         x="727"
         y="595.2359"
         id="text4">Business &amp; Data Tier</text>
    </g>
    <!--entity WAR-->
    <g
       id="elem_WAR">
      <rect
         fill="#ffffff"
         filter="url(#f20tzzow59pgi)"
         height="39.067902"
         rx="2.5"
         ry="2.5"
         style="stroke:#181818;stroke-width:0.5"
         width="299"
         x="22.5"
         y="354.14001"
         id="rect4" />
      <text
         fill="#000000"
         font-family="sans-serif"
         font-size="14px"
         lengthAdjust="spacing"
         textLength="279"
         x="32.5"
         y="379.1059"
         id="text5">Maven gradle + Jakarta Servlet WAR build</text>
    </g>
    <!--entity CCT-->
    <g
       id="elem_CCT">
      <rect
         fill="#ffffff"
         filter="url(#f20tzzow59pgi)"
         height="39.067902"
         rx="2.5"
         ry="2.5"
         style="stroke:#181818;stroke-width:0.5"
         width="200"
         x="393"
         y="190.57001"
         id="rect5" />
      <text
         fill="#000000"
         font-family="sans-serif"
         font-size="14px"
         lengthAdjust="spacing"
         textLength="180"
         x="403"
         y="215.5359"
         id="text6">Static resources and forms</text>
    </g>
    <!--entity CT-->
    <g
       id="elem_CT">
      <rect
         fill="#ffffff"
         filter="url(#f20tzzow59pgi)"
         height="39.067902"
         rx="2.5"
         ry="2.5"
         style="stroke:#181818;stroke-width:0.5"
         width="144"
         x="421"
         y="474.20999"
         id="rect6" />
      <text
         fill="#000000"
         font-family="sans-serif"
         font-size="14px"
         lengthAdjust="spacing"
         textLength="124"
         x="431"
         y="499.1759"
         id="text7">Servlet Controllers</text>
    </g>
    <!--entity TT-->
    <g
       id="elem_TT">
      <rect
         fill="#ffffff"
         filter="url(#f20tzzow59pgi)"
         height="39.067902"
         rx="2.5"
         ry="2.5"
         style="stroke:#181818;stroke-width:0.5"
         width="164"
         x="378"
         y="625.81"
         id="rect7" />
      <text
         fill="#000000"
         font-family="sans-serif"
         font-size="14px"
         lengthAdjust="spacing"
         textLength="144"
         x="388"
         y="650.77588"
         id="text8">Thymeleaf Templates</text>
    </g>
    <!--entity B-->
    <g
       id="elem_B">
      <rect
         fill="#ffffff"
         filter="url(#f20tzzow59pgi)"
         height="39.067902"
         rx="2.5"
         ry="2.5"
         style="stroke:#181818;stroke-width:0.5"
         width="61"
         x="622.5"
         y="354.14001"
         id="rect8" />
      <text
         fill="#000000"
         font-family="sans-serif"
         font-size="14px"
         lengthAdjust="spacing"
         textLength="41"
         x="632.5"
         y="379.1059"
         id="text9">Beans</text>
    </g>
    <!--entity STATIC-->
    <g
       id="elem_STATIC">
      <rect
         fill="#ffffff"
         filter="url(#f20tzzow59pgi)"
         height="39.067902"
         rx="2.5"
         ry="2.5"
         style="stroke:#181818;stroke-width:0.5"
         width="130"
         x="428"
         y="354.14001"
         id="rect9" />
      <text
         fill="#000000"
         font-family="sans-serif"
         font-size="14px"
         lengthAdjust="spacing"
         textLength="110"
         x="438"
         y="379.1059"
         id="text10">Static Resources</text>
    </g>
    <!--entity SS-->
    <g
       id="elem_SS">
      <rect
         fill="#ffffff"
         filter="url(#f20tzzow59pgi)"
         height="39.067902"
         rx="2.5"
         ry="2.5"
         style="stroke:#181818;stroke-width:0.5"
         width="106"
         x="577"
         y="625.81"
         id="rect10" />
      <text
         fill="#000000"
         font-family="sans-serif"
         font-size="14px"
         lengthAdjust="spacing"
         textLength="86"
         x="587"
         y="650.77588"
         id="text11">local storage</text>
    </g>
    <!--entity DAO-->
    <g
       id="elem_DAO">
      <rect
         fill="#ffffff"
         filter="url(#f20tzzow59pgi)"
         height="58.135799"
         rx="2.5"
         ry="2.5"
         style="stroke:#181818;stroke-width:0.5"
         width="100"
         x="739"
         y="616.27002"
         id="rect11" />
      <text
         fill="#000000"
         font-family="sans-serif"
         font-size="14px"
         lengthAdjust="spacing"
         textLength="80"
         x="749"
         y="641.2359"
         id="text12">Data Access</text>
      <text
         fill="#000000"
         font-family="sans-serif"
         font-size="14px"
         lengthAdjust="spacing"
         textLength="51"
         x="763.5"
         y="660.30389"
         id="text13">Objects</text>
    </g>
    <!--entity DB-->
    <g
       id="elem_DB">
      <path
         d="m 948.5,631.31 c 0,-10 41.5,-10 41.5,-10 0,0 41.5,0 41.5,10 v 28.0679 c 0,10 -41.5,10 -41.5,10 0,0 -41.5,0 -41.5,-10 V 631.31"
         fill="#ffffff"
         filter="url(#f20tzzow59pgi)"
         style="stroke:#181818;stroke-width:0.5"
         id="path13" />
      <path
         d="m 948.5,631.31 c 0,10 41.5,10 41.5,10 0,0 41.5,0 41.5,-10"
         fill="none"
         style="stroke:#181818;stroke-width:0.5"
         id="path14" />
      <text
         fill="#000000"
         font-family="sans-serif"
         font-size="14px"
         lengthAdjust="spacing"
         textLength="63"
         x="958.5"
         y="660.27588"
         id="text14">Database</text>
    </g>
    <!--entity Dev-->
    <g
       id="elem_Dev">
      <circle
         cx="172"
         cy="177.57001"
         fill="#da70d6"
         filter="url(#f20tzzow59pgi)"
         style="stroke:#181818;stroke-width:0.5"
         id="ellipse14"
         r="8" />
      <path
         d="m 172,185.57 v 27 m -13,-19 h 26 m -13,19 -13,15 m 13,-15 13,15"
         fill="none"
         filter="url(#f20tzzow59pgi)"
         style="stroke:#181818;stroke-width:0.5"
         id="path15" />
      <text
         fill="#000000"
         font-family="sans-serif"
         font-size="14px"
         lengthAdjust="spacing"
         textLength="68"
         x="138"
         y="247.0359"
         id="text15">Developer</text>
    </g>
    <!--entity C-->
    <g
       id="elem_C">
      <circle
         cx="493"
         cy="14"
         fill="#add8e6"
         filter="url(#f20tzzow59pgi)"
         style="stroke:#181818;stroke-width:0.5"
         id="ellipse15"
         r="8" />
      <path
         d="M 493,22 V 49 M 480,30 h 26 m -13,19 -13,15 m 13,-15 13,15"
         fill="none"
         filter="url(#f20tzzow59pgi)"
         style="stroke:#181818;stroke-width:0.5"
         id="path16" />
      <text
         fill="#000000"
         font-family="sans-serif"
         font-size="14px"
         lengthAdjust="spacing"
         textLength="39"
         x="473.5"
         y="83.465897"
         id="text16">Client</text>
    </g>
    <!--link Dev to WAR-->
    <g
       id="link_Dev_WAR">
      <path
         d="m 172,251.46 c 0,32.71 0,71.34 0,96.31"
         fill="none"
         id="Dev-to-WAR"
         style="stroke:#181818;stroke-width:1" />
      <polygon
         fill="#181818"
         points="172,353.77 176,344.77 172,348.77 168,344.77 "
         style="stroke:#181818;stroke-width:1"
         id="polygon16" />
      <text
         fill="#000000"
         font-family="sans-serif"
         font-size="13px"
         lengthAdjust="spacing"
         textLength="30"
         x="173"
         y="296.03699"
         id="text17">Build</text>
    </g>
    <!--link C to CCT-->
    <g
       id="link_C_CCT">
      <path
         d="m 493,87.89 c 0,32.71 0,71.35 0,96.31"
         fill="none"
         id="C-to-CCT"
         style="stroke:#181818;stroke-width:1" />
      <polygon
         fill="#181818"
         points="493,190.2 497,181.2 493,185.2 489,181.2 "
         style="stroke:#181818;stroke-width:1"
         id="polygon17" />
      <text
         fill="#000000"
         font-family="sans-serif"
         font-size="13px"
         lengthAdjust="spacing"
         textLength="29"
         x="494"
         y="132.467"
         id="text18">Uses</text>
    </g>
    <!--link WAR to CT-->
    <g
       id="link_WAR_CT">
      <path
         d="m 223.57,393.64 c 59.82,22 152.2188,55.9889 212.0888,78.0089"
         fill="none"
         id="WAR-to-CT"
         style="stroke:#181818;stroke-width:1" />
      <polygon
         fill="#181818"
         points="441.29,473.72 434.224,466.8592 436.5973,471.9941 431.4624,474.3674 "
         style="stroke:#181818;stroke-width:1"
         id="polygon18" />
      <text
         fill="#000000"
         font-family="sans-serif"
         font-size="13px"
         lengthAdjust="spacing"
         textLength="47"
         x="352.72"
         y="440.10699"
         id="text19">deploys</text>
    </g>
    <!--link CT to SS-->
    <g
       id="link_CT_SS">
      <path
         d="m 510.35,513.69 c 26.35,28.77 72.1181,78.7448 98.3881,107.4348"
         fill="none"
         id="CT-to-SS"
         style="stroke:#181818;stroke-width:1" />
      <polygon
         fill="#181818"
         points="612.79,625.55 609.6623,616.211 609.4134,621.8624 603.762,621.6135 "
         style="stroke:#181818;stroke-width:1"
         id="polygon19" />
      <text
         fill="#000000"
         font-family="sans-serif"
         font-size="13px"
         lengthAdjust="spacing"
         textLength="87"
         x="554.29999"
         y="558.16699"
         id="text20">save images in</text>
    </g>
    <!--reverse link CCT to STATIC-->
    <g
       id="link_CCT_STATIC">
      <path
         d="m 493,235.95 c 0,31.05 0,86.61 0,117.74"
         fill="none"
         id="CCT-backto-STATIC"
         style="stroke:#181818;stroke-width:1" />
      <polygon
         fill="#181818"
         points="493,229.95 489,238.95 493,234.95 497,238.95 "
         style="stroke:#181818;stroke-width:1"
         id="polygon20" />
      <text
         fill="#000000"
         font-family="sans-serif"
         font-size="13px"
         lengthAdjust="spacing"
         textLength="58"
         x="494"
         y="296.03699"
         id="text21">Response</text>
    </g>
    <!--link CT to TT-->
    <g
       id="link_CT_TT">
      <path
         d="m 486.61,513.49 c -2.89,8.95 -6.2,19.84 -8.61,29.78 -6.89,28.41 -11.4585,55.9651 -14.4885,76.3651"
         fill="none"
         id="CT-to-TT"
         style="stroke:#181818;stroke-width:1" />
      <polygon
         fill="#181818"
         points="462.63,625.57 467.9089,617.2553 463.3646,620.6243 459.9957,616.08 "
         style="stroke:#181818;stroke-width:1"
         id="polygon21" />
      <text
         fill="#000000"
         font-family="sans-serif"
         font-size="13px"
         lengthAdjust="spacing"
         textLength="46"
         x="479"
         y="558.16699"
         id="text22">process</text>
    </g>
    <!--reverse link STATIC to CT-->
    <g
       id="link_STATIC_CT">
      <path
         d="m 493,399.64 c 0,22.03 0,52.16 0,74.18"
         fill="none"
         id="STATIC-backto-CT"
         style="stroke:#181818;stroke-width:1" />
      <polygon
         fill="#181818"
         points="493,393.64 489,402.64 493,398.64 497,402.64 "
         style="stroke:#181818;stroke-width:1"
         id="polygon22" />
      <text
         fill="#000000"
         font-family="sans-serif"
         font-size="13px"
         lengthAdjust="spacing"
         textLength="32"
         x="494"
         y="440.10699"
         id="text23">serve</text>
    </g>
    <!--link CT to DAO-->
    <g
       id="link_CT_DAO">
      <path
         d="m 565.25,511.84 c 41.5,12.03 93.24,30.95 133.75,58.43 20.43,13.86 37.2865,27.4212 54.0865,41.9112"
         fill="none"
         id="CT-to-DAO"
         style="stroke:#181818;stroke-width:1" />
      <polygon
         fill="#181818"
         points="757.63,616.1 753.4273,607.1929 753.8438,612.8344 748.2023,613.2509 "
         style="stroke:#181818;stroke-width:1"
         id="polygon23" />
      <text
         fill="#000000"
         font-family="sans-serif"
         font-size="13px"
         lengthAdjust="spacing"
         textLength="49"
         x="685.03003"
         y="558.16699"
         id="text24">Request</text>
    </g>
    <!--link DAO to DB-->
    <g
       id="link_DAO_DB">
      <path
         d="m 845.46,645.34 c 33.49,0 64.94,0 96.54,0"
         fill="none"
         id="DAO-DB"
         style="stroke:#181818;stroke-width:1" />
      <polygon
         fill="#181818"
         points="839.46,645.34 848.46,649.34 844.46,645.34 848.46,641.34 "
         style="stroke:#181818;stroke-width:1"
         id="polygon24" />
      <polygon
         fill="#181818"
         points="948,645.34 939,641.34 943,645.34 939,649.34 "
         style="stroke:#181818;stroke-width:1"
         id="polygon25" />
      <text
         fill="#000000"
         font-family="sans-serif"
         font-size="13px"
         lengthAdjust="spacing"
         textLength="73"
         x="857.25"
         y="638.237"
         id="text25">SQL Queries</text>
    </g>
    <!--reverse link B to DAO-->
    <g
       id="link_B_DAO">
      <path
         d="m 666.5773,398.923 c 17.26,31.02 49.2427,89.317 76.4227,144.347 11.95,24.2 24.59,52.16 33.59,72.53"
         fill="none"
         id="B-backto-DAO"
         style="stroke:#181818;stroke-width:1" />
      <polygon
         fill="#181818"
         points="663.66,393.68 664.5406,403.4894 666.0911,398.0492 671.5313,399.5997 "
         style="stroke:#181818;stroke-width:1"
         id="polygon26" />
      <text
         fill="#000000"
         font-family="sans-serif"
         font-size="13px"
         lengthAdjust="spacing"
         textLength="55"
         x="728.33002"
         y="499.13699"
         id="text26">response</text>
    </g>
    <!--SRC=[TLF1ZjCm4BtxAqQjn0Nb1weLKffUGA3LReAuS9awqzJKiRssqwL2_3ipILeYblPGrPxtvhrvdgQJSG4Zzf2EsFfNuph8SI2LRWNj- -0TkLpdYoM8f3EwpYuXBHrmiBcXdxcqfdCzeq7p5qMbK6SVOKTdiZvG14noWBMF-cZQkLnP8nokLR3c5iUyj-n2gO3wX1t1QZiOsy8xgDYEiPYDTojOlnu9C_nIm9-RKLXzmJCvw2AsxFWzVC8JnenGKpnRol2jV8Qzz5k9efouaScaVYibtehYWznkO19Tk9XzDeOYgmUqr4LYgJSEwimMDQUL_10r9K3Nmi77FesQLTLSDKLKLQEct6xWQwAabgEN8LYZnv6locD4saUq_v6Ufwoyoz5RIt7Ml4d-GsYEbvuiuG4QwWDdInEXkKVO4he9ihs3cCT_leu_WkkcR3vMTnZMQnucyJBmp1Ey_liiyaO5xwUJb2IabeBrbwJuSBrd_0OIlpoOddiaC8vJd4MB8Tm2PbUicZZw1RkHIeYUpKvTHyBCvhuSAYstCHd7I5x87V9cBPybPI8hw_lsQKPigKNZktlS_-3_qXJDhdnSvj8oRe-99eRycb3RnQ8kl0jRndePA6KbfuSYYXMfRRbKFts6fu6YuSsISc7f84MfnLiQVm00]-->
  </g>
</svg>
